<svg width="16" height="16" viewBox="0 0 16 16" fill="none" xmlns="http://www.w3.org/2000/svg">
<path fill-rule="evenodd" clip-rule="evenodd" d="M7.50735 14.7562C7.50735 14.7562 2.66602 10.6788 2.66602 6.66683C2.66602 5.25234 3.22792 3.89579 4.22811 2.89559C5.22831 1.8954 6.58486 1.3335 7.99935 1.3335C9.41384 1.3335 10.7704 1.8954 11.7706 2.89559C12.7708 3.89579 13.3327 5.25234 13.3327 6.66683C13.3327 10.6788 8.49135 14.7562 8.49135 14.7562C8.22202 15.0042 7.77868 15.0015 7.50735 14.7562ZM7.99935 9.00016C8.30577 9.00016 8.60918 8.93981 8.89228 8.82255C9.17537 8.70529 9.43259 8.53342 9.64926 8.31675C9.86593 8.10008 10.0378 7.84285 10.1551 7.55976C10.2723 7.27666 10.3327 6.97325 10.3327 6.66683C10.3327 6.36041 10.2723 6.05699 10.1551 5.7739C10.0378 5.49081 9.86593 5.23358 9.64926 5.01691C9.43259 4.80024 9.17537 4.62837 8.89228 4.51111C8.60918 4.39385 8.30577 4.3335 7.99935 4.3335C7.38051 4.3335 6.78702 4.57933 6.34943 5.01691C5.91185 5.4545 5.66602 6.04799 5.66602 6.66683C5.66602 7.28567 5.91185 7.87916 6.34943 8.31675C6.78702 8.75433 7.38051 9.00016 7.99935 9.00016Z" fill="#A5A5A5"/>
</svg>
