<svg width="36" height="36" viewBox="0 0 36 36" fill="none" xmlns="http://www.w3.org/2000/svg">
<path d="M30.948 24.8822C30.152 23.5125 28.9694 19.6495 28.9694 14.625C28.9694 11.7159 27.8137 8.92596 25.7567 6.86892C23.6997 4.81188 20.9097 3.65625 18.0006 3.65625C15.0915 3.65625 12.3016 4.81188 10.2445 6.86892C8.1875 8.92596 7.03187 11.7159 7.03187 14.625C7.03187 19.6509 5.8478 23.5125 5.05186 24.8822C4.87723 25.1812 4.78456 25.521 4.78322 25.8673C4.78187 26.2136 4.87189 26.5542 5.0442 26.8546C5.2165 27.155 5.465 27.4046 5.7646 27.5783C6.0642 27.7519 6.40431 27.8435 6.75062 27.8438H12.7244C12.9293 29.0945 13.5722 30.2318 14.5381 31.0524C15.5041 31.873 16.7303 32.3235 17.9978 32.3235C19.2653 32.3235 20.4915 31.873 21.4575 31.0524C22.4235 30.2318 23.0663 29.0945 23.2712 27.8438H29.2506C29.5967 27.843 29.9364 27.7511 30.2356 27.5772C30.5349 27.4033 30.7829 27.1537 30.9549 26.8533C31.1269 26.553 31.2167 26.2127 31.2152 25.8666C31.2137 25.5206 31.1211 25.181 30.9466 24.8822H30.948ZM18.0006 30.6562C17.1778 30.656 16.3792 30.3782 15.7338 29.8678C15.0884 29.3575 14.6341 28.6443 14.4442 27.8438H21.557C21.3671 28.6443 20.9128 29.3575 20.2674 29.8678C19.6221 30.3782 18.8234 30.656 18.0006 30.6562ZM29.4911 26.0156C29.4679 26.0587 29.4334 26.0946 29.3912 26.1194C29.3491 26.1442 29.3009 26.1569 29.252 26.1562H6.75062C6.70171 26.1569 6.65356 26.1442 6.61141 26.1194C6.56925 26.0946 6.53471 26.0587 6.51155 26.0156C6.48687 25.9729 6.47387 25.9244 6.47387 25.875C6.47387 25.8256 6.48687 25.7771 6.51155 25.7344C7.57608 23.9062 8.71936 19.6439 8.71936 14.625C8.71936 12.1635 9.69721 9.80274 11.4378 8.06217C13.1784 6.32159 15.5391 5.34375 18.0006 5.34375C20.4622 5.34375 22.8229 6.32159 24.5634 8.06217C26.304 9.80274 27.2819 12.1635 27.2819 14.625C27.2819 19.6425 28.4266 23.8992 29.4911 25.7344C29.5158 25.7771 29.5288 25.8256 29.5288 25.875C29.5288 25.9244 29.5158 25.9729 29.4911 26.0156Z" fill="black"/>
</svg>
