<svg width="36" height="36" viewBox="0 0 36 36" fill="none" xmlns="http://www.w3.org/2000/svg">
<path d="M6 18C6 14.8174 7.26428 11.7652 9.51472 9.51472C11.7652 7.26428 14.8174 6 18 6C21.1826 6 24.2348 7.26428 26.4853 9.51472C28.7357 11.7652 30 14.8174 30 18V25.635C30 26.907 30 27.54 29.811 28.0485C29.6607 28.4514 29.4256 28.8174 29.1215 29.1215C28.8174 29.4256 28.4514 29.6607 28.0485 29.811C27.54 30 26.9055 30 25.635 30H18C14.8174 30 11.7652 28.7357 9.51472 26.4853C7.26428 24.2348 6 21.1826 6 18Z" stroke="#F9476B" stroke-width="2"/>
<path d="M13.5 16.5H22.5M18 22.5H22.5" stroke="#F9476B" stroke-width="2" stroke-linecap="round" stroke-linejoin="round"/>
</svg>
