<svg width="36" height="36" viewBox="0 0 36 36" fill="none" xmlns="http://www.w3.org/2000/svg">
<path d="M17.9998 30.2398C11.2318 30.2398 5.75977 24.7678 5.75977 17.9998C5.75977 11.2318 11.2318 5.75977 17.9998 5.75977C24.7678 5.75977 30.2398 11.2318 30.2398 17.9998C30.2398 24.7678 24.7678 30.2398 17.9998 30.2398ZM17.9998 7.19977C12.0238 7.19977 7.19977 12.0238 7.19977 17.9998C7.19977 23.9758 12.0238 28.7998 17.9998 28.7998C23.9758 28.7998 28.7998 23.9758 28.7998 17.9998C28.7998 12.0238 23.9758 7.19977 17.9998 7.19977Z" fill="#F9476B"/>
<path d="M11.5195 17.2798H24.4795V18.7198H11.5195V17.2798Z" fill="#F9476B"/>
<path d="M17.2793 11.52H18.7193V24.48H17.2793V11.52Z" fill="#F9476B"/>
</svg>
