<svg width="36" height="36" viewBox="0 0 36 36" fill="none" xmlns="http://www.w3.org/2000/svg">
<path d="M31.1909 24.7416C30.4105 23.3972 29.2503 19.5933 29.2503 14.625C29.2503 11.6413 28.0651 8.77983 25.9553 6.67005C23.8455 4.56026 20.984 3.375 18.0003 3.375C15.0166 3.375 12.1552 4.56026 10.0454 6.67005C7.93559 8.77983 6.75032 11.6413 6.75032 14.625C6.75032 19.5947 5.58876 23.3972 4.80829 24.7416C4.60898 25.0833 4.50332 25.4716 4.50197 25.8673C4.50061 26.2629 4.6036 26.6519 4.80056 26.9951C4.99751 27.3382 5.28147 27.6233 5.62378 27.8217C5.9661 28.0201 6.35468 28.1247 6.75032 28.125H12.4892C12.7488 29.3951 13.439 30.5365 14.4433 31.3563C15.4475 32.176 16.704 32.6237 18.0003 32.6237C19.2966 32.6237 20.5532 32.176 21.5574 31.3563C22.5616 30.5365 23.2519 29.3951 23.5114 28.125H29.2503C29.6458 28.1245 30.0342 28.0197 30.3764 27.8212C30.7185 27.6227 31.0022 27.3376 31.199 26.9945C31.3958 26.6514 31.4987 26.2625 31.4973 25.8669C31.4959 25.4714 31.3902 25.0832 31.1909 24.7416ZM18.0003 30.375C17.3026 30.3748 16.622 30.1583 16.0524 29.7554C15.4827 29.3524 15.052 28.7828 14.8194 28.125H21.1813C20.9487 28.7828 20.5179 29.3524 19.9483 29.7554C19.3786 30.1583 18.6981 30.3748 18.0003 30.375ZM6.75032 25.875C7.83314 24.0131 9.00032 19.6987 9.00032 14.625C9.00032 12.2381 9.94853 9.94887 11.6364 8.26104C13.3242 6.57321 15.6134 5.625 18.0003 5.625C20.3873 5.625 22.6765 6.57321 24.3643 8.26104C26.0521 9.94887 27.0003 12.2381 27.0003 14.625C27.0003 19.6945 28.1647 24.0089 29.2503 25.875H6.75032Z" fill="black"/>
</svg>
